# CFAST Instrument Comprehension fixed-wing aircraft mesh.
# Coordinate convention: x=right wing, y=nose/forward, z=up.
# Materials are semantic render roles consumed by cfast_trainer.aircraft_art.

o fuselage
usemtl body
v -0.12 -2.95 0.15
v 0.12 -2.95 0.15
v 0.12 -2.95 -0.10
v -0.12 -2.95 -0.10
v -0.28 -2.20 0.34
v 0.28 -2.20 0.34
v 0.28 -2.20 -0.18
v -0.28 -2.20 -0.18
v -0.46 -0.42 0.46
v 0.46 -0.42 0.46
v 0.46 -0.42 -0.24
v -0.46 -0.42 -0.24
v -0.42 1.28 0.38
v 0.42 1.28 0.38
v 0.42 1.28 -0.18
v -0.42 1.28 -0.18
v -0.18 2.55 0.20
v 0.18 2.55 0.20
v 0.18 2.55 -0.08
v -0.18 2.55 -0.08
v -0.04 3.10 0.07
v 0.04 3.10 0.07
v 0.04 3.10 -0.03
v -0.04 3.10 -0.03
f 1 2 6 5
f 2 3 7 6
f 3 4 8 7
f 4 1 5 8
f 5 6 10 9
f 6 7 11 10
f 7 8 12 11
f 8 5 9 12
f 9 10 14 13
f 10 11 15 14
f 11 12 16 15
f 12 9 13 16
f 13 14 18 17
f 14 15 19 18
f 15 16 20 19
f 16 13 17 20
f 17 18 22 21
f 18 19 23 22
f 19 20 24 23
f 20 17 21 24
f 1 4 3 2
f 21 22 23 24

o canopy
usemtl canopy
v -0.24 0.70 0.48
v 0.24 0.70 0.48
v 0.18 1.80 0.72
v -0.18 1.80 0.72
v -0.18 0.82 0.42
v 0.18 0.82 0.42
v 0.12 1.72 0.42
v -0.12 1.72 0.42
f 25 26 28 27
f 29 31 30 32
f 25 27 31 29
f 26 30 28 32
f 27 28 32 31
f 25 29 30 26

o left_wing
usemtl wing
v -0.34 0.48 0.08
v -4.15 0.08 0.14
v -3.30 -0.92 0.02
v -0.62 -0.28 0.00
v -0.34 0.48 -0.06
v -4.15 0.08 -0.04
v -3.30 -0.92 -0.08
v -0.62 -0.28 -0.08
f 33 34 35 36
f 37 40 39 38
f 33 37 38 34
f 34 38 39 35
f 35 39 40 36
f 36 40 37 33

o right_wing
usemtl wing
v 0.34 0.48 0.08
v 0.62 -0.28 0.00
v 3.30 -0.92 0.02
v 4.15 0.08 0.14
v 0.34 0.48 -0.06
v 0.62 -0.28 -0.08
v 3.30 -0.92 -0.08
v 4.15 0.08 -0.04
f 41 42 43 44
f 45 48 47 46
f 41 45 46 42
f 42 46 47 43
f 43 47 48 44
f 44 48 45 41

o left_engine
usemtl engine
v -1.10 0.22 -0.14
v -0.72 0.22 -0.14
v -0.72 -0.58 -0.16
v -1.10 -0.58 -0.16
v -1.10 0.22 -0.42
v -0.72 0.22 -0.42
v -0.72 -0.58 -0.42
v -1.10 -0.58 -0.42
f 49 50 51 52
f 53 56 55 54
f 49 53 54 50
f 50 54 55 51
f 51 55 56 52
f 52 56 53 49

o right_engine
usemtl engine
v 0.72 0.22 -0.14
v 1.10 0.22 -0.14
v 1.10 -0.58 -0.16
v 0.72 -0.58 -0.16
v 0.72 0.22 -0.42
v 1.10 0.22 -0.42
v 1.10 -0.58 -0.42
v 0.72 -0.58 -0.42
f 57 58 59 60
f 61 64 63 62
f 57 61 62 58
f 58 62 63 59
f 59 63 64 60
f 60 64 61 57

o left_tailplane
usemtl tail
v -0.12 -2.08 0.24
v -1.62 -2.24 0.30
v -1.12 -2.82 0.20
v -0.26 -2.46 0.18
v -0.12 -2.08 0.12
v -1.62 -2.24 0.14
v -1.12 -2.82 0.10
v -0.26 -2.46 0.08
f 65 66 67 68
f 69 72 71 70
f 65 69 70 66
f 66 70 71 67
f 67 71 72 68
f 68 72 69 65

o right_tailplane
usemtl tail
v 0.12 -2.08 0.24
v 0.26 -2.46 0.18
v 1.12 -2.82 0.20
v 1.62 -2.24 0.30
v 0.12 -2.08 0.12
v 0.26 -2.46 0.08
v 1.12 -2.82 0.10
v 1.62 -2.24 0.14
f 73 74 75 76
f 77 80 79 78
f 73 77 78 74
f 74 78 79 75
f 75 79 80 76
f 76 80 77 73

o vertical_tail
usemtl tail
v -0.08 -2.48 0.28
v 0.08 -2.48 0.28
v 0.06 -1.86 1.54
v -0.06 -1.86 1.54
v -0.10 -2.86 0.22
v 0.10 -2.86 0.22
f 81 82 83 84
f 81 85 86 82
f 85 84 83 86
f 81 84 85
f 82 86 83

o nose_accent
usemtl accent
v -0.08 2.55 0.21
v 0.08 2.55 0.21
v 0.04 3.08 0.08
v -0.04 3.08 0.08
f 87 88 89 90
